<?xml version="1.0" encoding="UTF-8"?>
<svg width="19px" height="20px" viewBox="0 0 19 20" version="1.1" xmlns="http://www.w3.org/2000/svg" xmlns:xlink="http://www.w3.org/1999/xlink">
    <!-- Generator: Sketch 45.2 (43514) - http://www.bohemiancoding.com/sketch -->
    <title>User Inactive</title>
    <desc>Created with Sketch.</desc>
    <defs></defs>
    <g id="Symbols" stroke="none" stroke-width="1" fill="none" fill-rule="evenodd">
        <g id="Notes" transform="translate(-21.000000, -300.000000)" fill-rule="nonzero" fill="#ABB7CB">
            <g id="User-Inactive" transform="translate(21.000000, 300.000000)">
                <path d="M9.5065438,1.18829941 C11.1129761,1.18829941 12.2039835,1.73491714 12.7483731,2.81300177 C13.2033433,3.71462395 13.2033433,4.80429451 13.2033433,5.76518311 C13.2033433,7.01141212 12.5742873,8.49975713 11.4761501,9.84758573 L10.7798066,10.7034584 L11.5817602,11.4617419 C11.9450827,11.8041207 12.7332223,12.2277494 14.1562108,12.9390952 C15.4887401,13.605137 16.3951155,14.0745153 16.8281021,14.5079475 C17.5912874,15.2709842 17.8134993,16.6988745 17.823897,17.4224003 C17.8256794,17.5280104 17.784386,17.6312439 17.7107114,17.7061068 C17.6352544,17.7829006 17.5348431,17.8246397 17.4281933,17.8246397 L1.58400311,17.8246397 C1.47883861,17.8246397 1.3756051,17.7817123 1.30193054,17.7061068 C1.22825598,17.6312439 1.18681403,17.5280104 1.1878538,17.4229945 C1.19127016,17.2235087 1.246229,15.4461099 2.1836487,14.5079475 C2.6166353,14.0751094 3.52315921,13.6064738 4.85553992,12.9390952 C6.27793431,12.2289377 7.06666804,11.8045663 7.42999058,11.4605536 L8.23194415,10.7027157 L7.53560069,9.84743719 C6.43880034,8.50020274 5.80900165,7.01185773 5.80900165,5.76503458 C5.80900165,4.80414597 5.80900165,3.71447541 6.26397179,2.81285324 C6.80910414,1.73491714 7.89907178,1.18829941 9.5065438,1.18829941 L9.5065438,1.18829941 Z M9.5065438,0 C6.90030612,0 5.72804876,1.23820798 5.20386018,2.27752435 C4.62114786,3.43151161 4.62114786,4.72542113 4.62114786,5.76518311 C4.62114786,7.29808935 5.35239761,9.04800877 6.6140745,10.5978483 C6.31224645,10.8828916 5.07032504,11.503778 4.32407301,11.8760128 C2.84419463,12.6163233 1.90514103,13.1060512 1.34366956,13.6678198 C0.100262763,14.911078 0.00623857189,16.9981774 0.000148537426,17.4042787 C-0.00683272159,17.828056 0.157152597,18.2374252 0.455118673,18.5404415 C0.752787675,18.8419725 1.15963168,19.012642 1.58400311,19.012642 L17.4283418,19.012642 C17.8530103,19.012642 18.2594087,18.842121 18.5570777,18.5404415 C18.8548952,18.2374252 19.0190291,17.8279075 19.012642,17.4036846 C19.0062549,16.9981774 18.9116365,14.911078 17.6685268,13.6678198 C17.1079466,13.1060512 16.1682988,12.6163233 14.6879748,11.8760128 C13.9417228,11.5036295 12.6996528,10.8827431 12.3984189,10.5978483 C13.6595017,9.04800877 14.3913456,7.29808935 14.3913456,5.76518311 C14.3913456,4.72542113 14.3913456,3.43151161 13.8092274,2.27752435 C13.2847418,1.23820798 12.1123359,0 9.5065438,0 L9.5065438,0 Z" id="Shape"></path>
            </g>
        </g>
    </g>
</svg>