<?xml version="1.0" encoding="UTF-8"?>
<svg width="23px" height="20px" viewBox="0 0 23 20" version="1.1" xmlns="http://www.w3.org/2000/svg" xmlns:xlink="http://www.w3.org/1999/xlink">
    <!-- Generator: Sketch 45.2 (43514) - http://www.bohemiancoding.com/sketch -->
    <title>Salir Inactive</title>
    <desc>Created with Sketch.</desc>
    <defs></defs>
    <g id="Welcome" stroke="none" stroke-width="1" fill="none" fill-rule="evenodd">
        <g id="Log-in-Copy-16" transform="translate(-18.000000, -525.000000)" fill-rule="nonzero" fill="#ABB7CB">
            <g id="Salir-Inactive" transform="translate(18.000000, 525.000000)">
                <path d="M3.65547282,11.0677632 L16.0601113,11.0677632 C16.6514168,11.0677632 17.1307996,10.5883803 17.1307996,9.99707485 C17.1307996,9.40576936 16.6514168,8.92638649 16.0601113,8.92638649 L3.65547282,8.92638649 L5.0398015,7.54205782 C5.45794099,7.12391832 5.45794099,6.44602983 5.0398015,6.02789034 C4.62173338,5.60975084 3.94377351,5.60975084 3.52563402,6.02789034 L0.31371169,9.23988404 C0.288657582,9.26493815 0.26495968,9.2912057 0.242546603,9.31861532 C0.23276765,9.33053565 0.224273522,9.34316978 0.215065602,9.35537562 C0.20328803,9.37107905 0.191153562,9.38642559 0.180232541,9.40277143 C0.170239449,9.41768969 0.161602563,9.43317898 0.152466023,9.44845413 C0.143686378,9.46315825 0.134478458,9.47750548 0.126412606,9.49263787 C0.117989857,9.5083413 0.110923314,9.52447301 0.103357116,9.54046195 C0.0959336772,9.556094 0.0881533418,9.57151192 0.0815150739,9.58750086 C0.0750909437,9.60313291 0.0698088812,9.61905048 0.0641699225,9.63489667 C0.05795993,9.65202768 0.0513930413,9.66894456 0.0461109788,9.68643247 C0.0413285708,9.70227865 0.0378309888,9.71833898 0.0338337522,9.7343993 C0.0293368611,9.75217273 0.0243403154,9.76987478 0.0207713542,9.7880051 C0.0171310138,9.80649232 0.0149182578,9.82519368 0.0122772265,9.84382366 C0.00999309137,9.85974122 0.00692378474,9.87544465 0.00535344181,9.89157636 C0.00192723905,9.9261239 0.000142758448,9.96088558 7.13792241e-05,9.99557589 C7.13792241e-05,9.99607554 0,9.99664657 0,9.99714623 C0,9.99764588 7.13792241e-05,9.99821692 7.13792241e-05,9.99871657 C0.000142758448,10.0334783 0.00192723905,10.0681686 0.00535344181,10.1027875 C0.00692378474,10.118705 0.00992171215,10.1341943 0.0121344681,10.1499691 C0.0148468786,10.1688133 0.0170596346,10.1876574 0.0207713542,10.2063587 C0.0243403154,10.2243463 0.0292654819,10.2417628 0.033762373,10.2593935 C0.0378309888,10.2755966 0.04139995,10.2919424 0.0462537372,10.3080027 C0.0514644206,10.3252051 0.05795993,10.3418365 0.0639557848,10.358682 C0.0697375019,10.3748137 0.0750195645,10.3910168 0.0815864531,10.406863 C0.0880819625,10.4225664 0.0957195395,10.4376274 0.10300022,10.452974 C0.110709177,10.4693198 0.117989857,10.4858084 0.126555364,10.5018687 C0.134407079,10.5165015 0.143329482,10.5304204 0.15182361,10.5446249 C0.161174288,10.5603997 0.170096691,10.5763173 0.180375299,10.5916638 C0.190796666,10.6072958 0.20243148,10.6219286 0.213638018,10.6369896 C0.223345592,10.6499092 0.232339374,10.6632571 0.242689362,10.6758199 C0.26403175,10.7018019 0.286658964,10.7267133 0.310285487,10.7506253 C0.311427555,10.7517674 0.312355485,10.7530522 0.313497552,10.7541943 L3.52556264,13.9663307 C3.73470376,14.1754005 4.00865723,14.2799711 4.28268207,14.2799711 C4.55663553,14.2798997 4.83073175,14.1754005 5.03973012,13.9664021 C5.45786961,13.5482626 5.45786961,12.8703741 5.0398015,12.4522346 L3.65547282,11.0677632 Z" id="XMLID_7_"></path>
                <path d="M21.2994076,0 L7.73735503,0 C7.14604954,0 6.66666667,0.479382869 6.66666667,1.07068836 L6.66666667,5.35344181 C6.66666667,5.9447473 7.14604954,6.42413017 7.73735503,6.42413017 C8.32866052,6.42413017 8.80804339,5.9447473 8.80804339,5.35344181 L8.80804339,2.14137672 L20.2287192,2.14137672 L20.2287192,17.1310852 L8.80804339,17.1310852 L8.80804339,13.9189487 C8.80804339,13.3276432 8.32866052,12.8482603 7.73735503,12.8482603 C7.14604954,12.8482603 6.66666667,13.3276432 6.66666667,13.9189487 L6.66666667,18.2017735 C6.66666667,18.793079 7.14604954,19.2724619 7.73735503,19.2724619 L21.2994076,19.2724619 C21.8907131,19.2724619 22.370096,18.793079 22.370096,18.2017735 L22.370096,1.07068836 C22.370096,0.479382869 21.8907131,0 21.2994076,0 Z" id="XMLID_8_"></path>
            </g>
        </g>
    </g>
</svg>