<?xml version="1.0" encoding="utf-8"?>
<!-- Generator: Adobe Illustrator 22.1.0, SVG Export Plug-In . SVG Version: 6.00 Build 0)  -->
<svg version="1.1" id="Layer_1" xmlns="http://www.w3.org/2000/svg" xmlns:xlink="http://www.w3.org/1999/xlink"  width="24px" height="24px" x="0px" y="0px"
	 viewBox="0 0 23 23" style="enable-background:new 0 0 23 23;" xml:space="preserve">
<style type="text/css">
	.st0{fill:#A7B1C2;}
</style>
<g>
	<path class="st0" d="M4.7,9.7V14c0,1.1,0.4,2.1,1.1,2.9v3.3H3v-4.8v-0.6l-0.5-0.3c-0.1,0-0.1-0.1-0.2-0.2c-0.1-0.1-0.2-0.3-0.2-0.5
		v-3.5c0-0.2,0.1-0.4,0.2-0.5c0.1-0.1,0.3-0.2,0.5-0.2H4.7 M5.8,8.7h-3c-0.5,0-0.9,0.2-1.2,0.5C1.3,9.5,1.1,10,1.1,10.5V14
		c0,0.4,0.2,0.8,0.4,1.1c0.1,0.2,0.3,0.3,0.5,0.4v5.1c0,0.4,0.3,0.7,0.7,0.7h4.1v-4.7C6.1,15.9,5.7,15,5.7,14V9.6
		C5.7,9.3,5.7,9,5.8,8.7L5.8,8.7z"/>
	<path class="st0" d="M4.8,3.7c0.9,0,1.6,0.7,1.6,1.6S5.7,6.9,4.8,6.9S3.1,6.2,3.1,5.3S3.9,3.7,4.8,3.7 M4.8,2.7
		c-1.5,0-2.6,1.2-2.6,2.6s1.2,2.6,2.6,2.6s2.6-1.2,2.6-2.6S6.2,2.7,4.8,2.7L4.8,2.7z"/>
	<path class="st0" d="M13.8,8.6c0.3,0,0.5,0.1,0.7,0.3c0.2,0.2,0.3,0.4,0.3,0.7V14c0,0.3-0.1,0.5-0.2,0.7c-0.1,0.1-0.2,0.2-0.3,0.3
		l-0.6,0.3v0.6V22H9.2v-6.2v-0.6l-0.6-0.3c-0.1-0.1-0.2-0.2-0.3-0.3C8.2,14.6,8,14.3,8,14V9.6c0-0.3,0.1-0.5,0.3-0.7
		c0.2-0.2,0.4-0.3,0.7-0.3H13.8 M13.8,7.6H9.1C8.5,7.6,8,7.8,7.6,8.2C7.3,8.6,7,9.1,7,9.6V14c0,0.5,0.2,0.9,0.5,1.3
		c0.2,0.2,0.4,0.4,0.6,0.5v6.5c0,0.4,0.3,0.7,0.7,0.7H14c0.4,0,0.7-0.3,0.7-0.7v-6.5c0.2-0.1,0.5-0.3,0.6-0.5
		c0.3-0.4,0.5-0.8,0.5-1.3V9.6c0-0.6-0.2-1.1-0.6-1.4C14.9,7.8,14.4,7.6,13.8,7.6L13.8,7.6z"/>
	<path class="st0" d="M11.4,1c1.2,0,2.1,1,2.1,2.1s-1,2.1-2.1,2.1s-2.1-1-2.1-2.1S10.3,1,11.4,1 M11.4,0C9.7,0,8.3,1.4,8.3,3.1
		s1.4,3.1,3.1,3.1s3.1-1.4,3.1-3.1S13.2,0,11.4,0L11.4,0z"/>
	<path class="st0" d="M20.1,9.7c0.2,0,0.4,0.1,0.5,0.2c0.1,0.1,0.2,0.3,0.2,0.5V14c0,0.2-0.1,0.4-0.2,0.5c-0.1,0.1-0.1,0.1-0.2,0.2
		l-0.5,0.3v0.6v4.8l-2.9,0v-3.3c0.7-0.8,1.1-1.8,1.1-2.9V9.7H20.1 M20.1,8.7H17c0.1,0.3,0.1,0.6,0.1,0.9V14c0,1-0.4,1.9-1.1,2.5v4.7
		c0,0,0.1,0,0.1,0h4.1c0.4,0,0.7-0.3,0.7-0.7v-5.1c0.2-0.1,0.3-0.2,0.5-0.4c0.3-0.3,0.4-0.7,0.4-1.1v-3.5c0-0.5-0.2-0.9-0.5-1.2
		C21,8.9,20.6,8.7,20.1,8.7L20.1,8.7z"/>
	<path class="st0" d="M18.2,3.7c0.9,0,1.6,0.7,1.6,1.6s-0.7,1.6-1.6,1.6s-1.6-0.7-1.6-1.6S17.3,3.7,18.2,3.7 M18.2,2.7
		c-1.5,0-2.6,1.2-2.6,2.6s1.2,2.6,2.6,2.6c1.5,0,2.6-1.2,2.6-2.6S19.7,2.7,18.2,2.7L18.2,2.7z"/>
</g>
</svg>
