<svg width="28px" height="23px" id="Layer_1" data-name="Layer 1" xmlns="http://www.w3.org/2000/svg" viewBox="0 0 23 23"><defs><style>.cls-1{fill:none;}.cls-2{fill:#a7b1c2;}</style></defs><title>Ticketstest</title><rect id="canvas_background" data-name="canvas background" class="cls-1" width="23" height="23"/><path id="svg_1" data-name="svg 1" class="cls-2" d="M17.251,6.9c.013.023.026.046.039.071a2.862,2.862,0,0,0-.443,3.494,2.741,2.741,0,0,0,2.6,1.5c.113,0,.23,0,.351-.013l.065.129L15.6,14.233q-3.658,1.86-7.321,3.713-.351-.689-.7-1.378,2.076-3.443,4.147-6.89l1.481-.75.06-.03c.692-.356,2.837-1.455,3.984-2M17.3,5.8a.213.213,0,0,0-.086.016c-1.147.518-4.41,2.2-4.459,2.225l-1.75.886a1.418,1.418,0,0,1-.068.128q-2.128,3.541-4.262,7.08a2.9,2.9,0,0,1-.252.368q.5.985,1,1.968c.218.428.372.616.621.616a1.574,1.574,0,0,0,.641-.22Q12.37,17,16.053,15.124l4.527-2.295A.589.589,0,0,0,20.93,12c-.172-.395-.385-.772-.572-1.141a5.062,5.062,0,0,1-.915.1,1.744,1.744,0,0,1-1.715-.968A2.029,2.029,0,0,1,18.512,7.2a5.853,5.853,0,0,0-.58-1.078A1.034,1.034,0,0,0,17.3,5.8Z" transform="translate(1 1)"/><path id="svg_2" data-name="svg 2" class="cls-2" d="M8.423,1.786c.024.012.049.026.074.041a2.868,2.868,0,0,0,1.481,3.2,2.808,2.808,0,0,0,1.4.394,3.242,3.242,0,0,0,1.894-.7L13.4,4.8C12.663,6.014,11,8.78,10.927,8.9q-2.12,3.528-4.245,7.052-1-.6-1.99-1.2c-1-.605-2.007-1.211-3.015-1.809q1.266-2.1,2.529-4.194L6.067,5.665,6.1,5.607c.4-.671,1.637-2.748,2.321-3.821M1.433,12.792h0M8.311.733a.663.663,0,0,0-.5.153c-.7,1.051-2.575,4.216-2.6,4.263Q2.948,8.9.688,12.65c-.3.492-.125.8.331,1.068,1.742,1.033,3.472,2.088,5.211,3.128a1.381,1.381,0,0,0,.637.257c.234,0,.4-.185.645-.592q2.139-3.546,4.272-7.1c.078-.129,2.009-3.339,2.624-4.359a.592.592,0,0,0-.143-.888c-.356-.243-.737-.45-1.092-.664a2.787,2.787,0,0,1-1.8.92,1.794,1.794,0,0,1-.9-.263,2.032,2.032,0,0,1-.816-2.782A5.954,5.954,0,0,0,8.591.771a.939.939,0,0,0-.28-.038Z" transform="translate(1 1)"/><path class="cls-2" d="M6.752,6.026l1.353.8.469-.8L7.247,5.233Z" transform="translate(1 1)"/><path class="cls-2" d="M8.789,7.27l1.241.745.47-.81-1.237-.72Z" transform="translate(1 1)"/><path class="cls-2" d="M13.407,9.871l.7,1.407.827-.411-.679-1.39Z" transform="translate(1 1)"/><path class="cls-2" d="M14.434,12.026l.633,1.3.836-.422-.643-1.278Z" transform="translate(1 1)"/></svg>