<?xml version="1.0" encoding="UTF-8"?>
<svg width="25px" height="25px" viewBox="0 0 25 25" version="1.1" xmlns="http://www.w3.org/2000/svg" xmlns:xlink="http://www.w3.org/1999/xlink">
    <!-- Generator: Sketch 45.2 (43514) - http://www.bohemiancoding.com/sketch -->
    <title>Combined Shape</title>
    <desc>Created with Sketch.</desc>
    <defs></defs>
    <g id="Welcome" stroke="none" stroke-width="1" fill="none" fill-rule="evenodd">
        <g id="Log-in" transform="translate(-818.000000, -742.000000)" fill="#6772E5">
            <g id="Email" transform="translate(803.000000, 728.000000)">
                <path d="M36.6718018,14.2821442 C36.8611234,14.0928227 37.1441866,14.000919 37.3335082,14.000919 C37.5228297,14.000919 37.8095691,14.0928227 37.9970526,14.2821442 L39.3204653,15.607395 C39.5097868,15.7985546 39.6072047,16.085294 39.6072047,16.2727775 C39.6072047,16.4584229 39.5097868,16.7451623 39.3204653,16.9344838 L38.8480805,17.4068686 C38.6587589,17.5961902 38.6587589,17.8810915 38.8480805,18.0722511 L39.3204653,18.5427979 C39.5097868,18.7321194 39.6072047,19.0133446 39.6072047,19.2026661 C39.6072047,19.3938257 39.5097868,19.6805652 39.3204653,19.8698867 L37.9970526,21.1896232 C37.6202476,21.5682663 37.052283,21.5682663 36.6718018,21.1896232 L36.2012551,20.7190765 C36.0119336,20.529755 35.7251941,20.529755 35.5340345,20.7190765 L35.0634878,21.1896232 C34.8741663,21.3789448 34.8741663,21.6656842 35.0634878,21.8568438 L35.5340345,22.3273905 C35.9145157,22.7060336 35.9145157,23.2758363 35.5340345,23.6544794 L34.2087838,24.9797301 C33.8356549,25.3583732 33.2658522,25.3583732 32.8872091,24.9797301 L32.4111482,24.5036692 C32.2218267,24.3143476 31.9387634,24.3143476 31.7512799,24.5036692 L30.9939938,25.2627934 C30.8028342,25.4521149 30.8028342,25.6414365 30.900252,25.830758 C31.653862,27.1560088 32.0325051,28.5750013 32.0325051,30.0914116 C32.0325051,34.822612 28.2479124,38.6072047 23.514874,38.6072047 C18.7836736,38.6072047 14.999081,34.822612 14.999081,30.0914116 C14.999081,25.3583732 18.7836736,21.5682663 23.514874,21.5682663 C25.1250261,21.5682663 26.5476947,21.9487475 27.7773657,22.7060336 C27.9666872,22.8034515 28.1560088,22.8034515 28.3453303,22.61413 L36.6718018,14.2821442 Z M23.499147,35.511692 C26.4062454,35.511692 28.7560138,33.1557991 28.7560138,30.2568667 C28.7560138,27.3518099 26.4062454,25 23.499147,25 C20.6002147,25 18.2443218,27.3518099 18.2443218,30.2568667 C18.2443218,33.1557991 20.6002147,35.511692 23.499147,35.511692 Z" id="Combined-Shape"></path>
            </g>
        </g>
    </g>
</svg>