<?xml version="1.0" encoding="UTF-8"?>
<svg width="21px" height="25px" viewBox="0 0 21 25" version="1.1" xmlns="http://www.w3.org/2000/svg" xmlns:xlink="http://www.w3.org/1999/xlink">
    <!-- Generator: Sketch 45.2 (43514) - http://www.bohemiancoding.com/sketch -->
    <title>User</title>
    <desc>Created with Sketch.</desc>
    <defs></defs>
    <g id="Welcome" stroke="none" stroke-width="1" fill="none" fill-rule="evenodd">
        <g id="Log-in" transform="translate(-818.000000, -651.000000)">
            <g id="Email" transform="translate(803.000000, 639.000000)">
                <g id="User" transform="translate(13.000000, 11.000000)">
                    <rect id="Path" fill="#FFFFFF" opacity="0" x="0" y="0" width="24.6100006" height="26"></rect>
                    <path d="M12.5167913,13.3740313 C15.3734716,13.3740313 17.6894866,10.6040376 17.6894866,7.18705179 C17.6894866,3.7699937 16.9291049,1 12.5167913,1 C8.1044777,1 7.34394915,3.7699937 7.34394915,7.18705179 C7.34394915,10.6040376 9.65996414,13.3740313 12.5167913,13.3740313 Z M22.1068438,22.2222488 C22.0110437,16.2697768 21.2215915,14.5736455 15.1804548,13.5 C15.1804548,13.5 14.3300723,14.5670671 12.3479998,14.5670671 C10.3659273,14.5670671 9.51539802,13.5 9.51539802,13.5 C3.54018357,14.5619345 2.70272124,16.2329091 2.5926061,22.0288741 C2.58357666,22.5021542 2.57939228,22.5270218 2.57777726,22.4720817 C2.57814431,22.5750222 2.57858477,22.765433 2.57858477,23.0974592 C2.57858477,23.0974592 4.0168353,25.9526101 12.3479998,25.9526101 C20.6790176,25.9526101 22.1174149,23.0974592 22.1174149,23.0974592 C22.1174149,22.8841326 22.1175617,22.7357943 22.1177819,22.634878 C22.1161669,22.6688541 22.1129369,22.6029982 22.1068438,22.2222488 Z" fill="#6772E5" fill-rule="nonzero"></path>
                </g>
            </g>
        </g>
    </g>
</svg>